<?xml version="1.0" standalone="no"?>
<!DOCTYPE svg PUBLIC "-//W3C//DTD SVG 20010904//EN"
 "http://www.w3.org/TR/2001/REC-SVG-20010904/DTD/svg10.dtd">
<svg version="1.0" xmlns="http://www.w3.org/2000/svg"
 width="512.000000pt" height="512.000000pt" viewBox="0 0 512.000000 512.000000"
 preserveAspectRatio="xMidYMid meet">

<g transform="translate(0.000000,512.000000) scale(0.100000,-0.100000)"
fill="#004AAD" stroke="none">
<path d="M1520 4927 c-397 -203 -742 -514 -982 -887 -391 -607 -504 -1349
-312 -2048 85 -309 243 -621 452 -891 85 -110 312 -337 422 -422 744 -576
1697 -704 2557 -343 293 122 560 302 793 534 203 201 353 405 477 648 70 138
73 159 26 200 -34 31 -61 25 -150 -29 -383 -236 -879 -355 -1330 -321 -250 19
-488 75 -703 164 -668 277 -1166 853 -1340 1548 -50 198 -64 324 -64 550 0
283 34 492 121 744 39 116 140 329 203 431 48 79 56 124 25 155 -40 39 -63 35
-195 -33z"/>
<path d="M2826 4857 c-18 -18 -24 -38 -29 -97 -12 -137 -68 -259 -164 -355
-95 -95 -215 -150 -351 -162 -61 -5 -81 -11 -99 -29 -51 -51 -11 -134 65 -134
72 0 157 -21 238 -60 184 -88 314 -292 314 -492 0 -28 7 -46 25 -63 52 -53
135 -15 135 63 0 130 64 283 158 377 104 105 220 160 359 172 89 7 123 30 123
83 0 52 -34 76 -120 83 -142 12 -270 74 -371 179 -85 89 -149 248 -149 370 0
76 -83 116 -134 65z"/>
<path d="M4228 4015 c-30 -16 -31 -20 -49 -133 -31 -200 -182 -350 -382 -382
-40 -6 -82 -13 -94 -16 -29 -6 -55 -56 -47 -88 10 -42 38 -58 116 -66 98 -11
171 -40 241 -96 100 -78 156 -186 173 -328 11 -97 70 -134 129 -83 23 19 28
34 36 102 23 213 191 381 404 404 68 8 83 13 102 36 51 59 14 118 -83 129
-142 17 -250 73 -328 173 -56 70 -85 143 -96 242 -9 79 -25 105 -70 115 -14 3
-37 -1 -52 -9z"/>
<path d="M3256 2937 c-17 -17 -25 -40 -30 -83 -21 -171 -152 -301 -322 -320
-52 -5 -68 -11 -84 -32 -26 -33 -25 -65 3 -97 17 -21 36 -28 92 -36 89 -12
162 -47 213 -103 55 -60 80 -112 94 -198 13 -84 37 -118 80 -118 60 0 82 30
92 128 6 64 56 161 103 202 50 45 128 80 186 86 97 10 127 32 127 92 0 41 -35
68 -98 76 -128 16 -238 89 -286 189 -14 29 -30 84 -35 122 -8 56 -15 75 -36
93 -33 28 -70 28 -99 -1z"/>
</g>
</svg>
